<svg width="66" height="66" viewBox="0 0 66 66" fill="none" xmlns="http://www.w3.org/2000/svg">
<path fill-rule="evenodd" clip-rule="evenodd" d="M39.9331 16.6441C37.7946 15.7343 35.4413 15.2308 32.9702 15.2308C23.824 15.2308 16.2903 22.1285 15.2962 31.0013H0C1.03413 13.7066 15.4001 0 32.9702 0C38.2183 0 43.1806 1.22289 47.5871 3.39902L39.9331 16.6441Z" fill="#556080"/>
<path d="M32.9701 50.7679C24.5247 50.7679 17.4542 44.8867 15.6376 37H0.180664C2.15726 53.3384 16.0839 65.9987 32.9701 65.9987C37.7023 65.9987 42.202 65.0044 46.2714 63.2136L38.5616 49.872C36.8033 50.4533 34.9235 50.7679 32.9701 50.7679Z" fill="#48A0DC"/>
<path d="M44.9864 19.901C48.5324 23.1494 50.7555 27.8161 50.7555 33.0015C50.7555 38.7148 48.0567 43.7984 43.8633 47.049L51.5245 60.3067C60.2616 54.3689 66.0001 44.3547 66.0001 33.0015C66.0001 22.1692 60.7761 12.5558 52.7079 6.53906L44.9864 19.901Z" fill="#4FBA6F"/>
</svg>
